<svg width="808" height="808" viewBox="43 0 808 808" fill="none" xmlns="http://www.w3.org/2000/svg">
<path d="M762.411 357.918L573.158 508.67C512.076 557.325 512.448 651.478 575.403 697.684C606.941 720.832 650.057 728.758 694.924 708.271C723.467 695.238 762.411 649.828 762.411 617.506V357.918Z" fill="url(#paint0_linear_371_9115)"/>
<path d="M153.49 22.9138C107.629 32.4768 72.4921 68.7629 65.3448 115.233L65.2112 690.004C69.4002 738.665 110.323 779.383 158.203 785.806H735.918C784.901 779.069 824.049 739.412 828.909 690.004L828.926 115.08C822.137 66.5585 782.078 26.6328 732.98 22.2358L153.49 22.9138ZM150.709 0.697449L738.55 0.00604248C797.72 8.24036 843.045 53.0347 851.121 112.322V695.556C844.188 754.283 797.581 801.035 738.677 807.998H155.442C95.5283 799.875 49.7281 753.227 43 692.78L43.1268 112.448C51.3594 55.4268 94.1489 11.1429 150.709 0.697449Z" fill="url(#paint1_linear_371_9115)"/>
<path d="M234.056 89.5975C337.693 77.1928 359.451 171.743 416.486 230.452C434.862 249.365 450.237 252.119 473.225 237.149C531.053 170.558 568.819 62.964 678.335 93.538C765.43 117.854 791.955 233.596 724.61 294.19C654.093 357.638 559.247 409.79 486.595 472.628C460.038 489.131 430.201 485.89 404.271 470.328C328.147 424.644 250.834 350.554 176.511 295.801C149.984 276.257 133.033 245.93 131.892 213.001C129.882 154.957 170.298 97.2284 234.056 89.5975Z" fill="url(#paint2_linear_371_9115)"/>
<path d="M131.944 358.124L321.197 508.876C382.279 557.532 381.907 651.685 318.952 697.891C287.414 721.039 244.298 728.965 199.431 708.478C170.887 695.445 131.944 650.035 131.944 617.713V358.124Z" fill="url(#paint3_linear_371_9115)"/>
<defs>
<linearGradient id="paint0_linear_371_9115" x1="645.086" y1="720.062" x2="645.086" y2="357.918" gradientUnits="userSpaceOnUse">
<stop stop-color="#A100FF"/>
<stop offset="1" stop-color="#00D1FF"/>
</linearGradient>
<linearGradient id="paint1_linear_371_9115" x1="447.06" y1="807.998" x2="447.06" y2="0.00604248" gradientUnits="userSpaceOnUse">
<stop stop-color="#A100FF"/>
<stop offset="1" stop-color="#00D1FF"/>
</linearGradient>
<linearGradient id="paint2_linear_371_9115" x1="447.186" y1="483.591" x2="447.186" y2="88.1906" gradientUnits="userSpaceOnUse">
<stop stop-color="#A100FF"/>
<stop offset="1" stop-color="#00D1FF"/>
</linearGradient>
<linearGradient id="paint3_linear_371_9115" x1="249.269" y1="720.269" x2="249.269" y2="358.124" gradientUnits="userSpaceOnUse">
<stop stop-color="#A100FF"/>
<stop offset="1" stop-color="#00D1FF"/>
</linearGradient>
</defs>
</svg>
